<svg width="228" height="56" viewBox="0 0 228 56" fill="none" xmlns="http://www.w3.org/2000/svg">
<g filter="url(#filter0_d_293_2689)">
<path d="M0 25C0 11.1929 11.1929 0 25 0H203C216.807 0 228 11.1929 228 25V31C228 44.8071 216.807 56 203 56H25C11.1929 56 0 44.8071 0 31V25Z" fill="#A3A3A3"/>
<path d="M0.5 25C0.5 11.469 11.469 0.5 25 0.5H203C216.531 0.5 227.5 11.469 227.5 25V31C227.5 44.531 216.531 55.5 203 55.5H25C11.469 55.5 0.5 44.531 0.5 31V25Z" stroke="#847F79"/>
</g>
<defs>
<filter id="filter0_d_293_2689" x="-4" y="0" width="236" height="64" filterUnits="userSpaceOnUse" color-interpolation-filters="sRGB">
<feFlood flood-opacity="0" result="BackgroundImageFix"/>
<feColorMatrix in="SourceAlpha" type="matrix" values="0 0 0 0 0 0 0 0 0 0 0 0 0 0 0 0 0 0 127 0" result="hardAlpha"/>
<feOffset dy="4"/>
<feGaussianBlur stdDeviation="2"/>
<feComposite in2="hardAlpha" operator="out"/>
<feColorMatrix type="matrix" values="0 0 0 0 0 0 0 0 0 0 0 0 0 0 0 0 0 0 0.25 0"/>
<feBlend mode="normal" in2="BackgroundImageFix" result="effect1_dropShadow_293_2689"/>
<feBlend mode="normal" in="SourceGraphic" in2="effect1_dropShadow_293_2689" result="shape"/>
</filter>
</defs>
</svg>
