<svg width="179" height="57" viewBox="0 0 179 57" fill="none" xmlns="http://www.w3.org/2000/svg">
<g filter="url(#filter0_d_293_3631)">
<path d="M0.325195 25.8672C0.325195 12.0601 11.5181 0.867188 25.3252 0.867188H153.69C167.497 0.867188 178.69 12.0601 178.69 25.8672V31.3716C178.69 45.1787 167.497 56.3716 153.69 56.3716H25.3252C11.5181 56.3716 0.325195 45.1787 0.325195 31.3716V25.8672Z" fill="#A3A3A3"/>
<path d="M0.825195 25.8672C0.825195 12.3362 11.7942 1.36719 25.3252 1.36719H153.69C167.221 1.36719 178.19 12.3362 178.19 25.8672V31.3716C178.19 44.9026 167.221 55.8716 153.69 55.8716H25.3252C11.7942 55.8716 0.825195 44.9026 0.825195 31.3716V25.8672Z" stroke="#847F79"/>
</g>
<defs>
<filter id="filter0_d_293_3631" x="-3.6748" y="0.867188" width="186.365" height="63.5049" filterUnits="userSpaceOnUse" color-interpolation-filters="sRGB">
<feFlood flood-opacity="0" result="BackgroundImageFix"/>
<feColorMatrix in="SourceAlpha" type="matrix" values="0 0 0 0 0 0 0 0 0 0 0 0 0 0 0 0 0 0 127 0" result="hardAlpha"/>
<feOffset dy="4"/>
<feGaussianBlur stdDeviation="2"/>
<feComposite in2="hardAlpha" operator="out"/>
<feColorMatrix type="matrix" values="0 0 0 0 0 0 0 0 0 0 0 0 0 0 0 0 0 0 0.25 0"/>
<feBlend mode="normal" in2="BackgroundImageFix" result="effect1_dropShadow_293_3631"/>
<feBlend mode="normal" in="SourceGraphic" in2="effect1_dropShadow_293_3631" result="shape"/>
</filter>
</defs>
</svg>
