<svg width="32" height="32" viewBox="0 0 32 32" fill="none" xmlns="http://www.w3.org/2000/svg">
<path d="M10.332 26.0955C9.67649 26.3121 9.32072 27.0191 9.53734 27.6746C9.75397 28.3301 10.461 28.6859 11.1164 28.4692L10.332 26.0955ZM18.4829 27.7952L18.3705 26.5503L18.4829 27.7952ZM23.1381 26.7696L23.6825 27.8948L23.1381 26.7696ZM27.5863 22.7577L26.6182 21.9669V21.9669L27.5863 22.7577ZM24.544 20.2475L25.4241 21.1352L24.544 20.2475ZM22.4954 22.2786L23.3755 23.1663L22.4954 22.2786ZM16.9312 21.9298C16.2408 21.9298 15.6812 22.4895 15.6812 23.1798C15.6812 23.8702 16.2408 24.4298 16.9312 24.4298V21.9298ZM27.1133 19.9953L26.4241 21.0381V21.0381L27.1133 19.9953ZM12.2987 19.3224L12.8539 20.4423L12.2987 19.3224ZM17.8668 18.8174L18.193 17.6107L18.193 17.6107L17.8668 18.8174ZM20.0412 19.4054L19.7149 20.612H19.7149L20.0412 19.4054ZM20.7301 21.9775L19.8501 21.0898L20.7301 21.9775ZM18.6373 22.2921C18.1471 22.7782 18.1437 23.5696 18.6297 24.0599C19.1158 24.5501 19.9072 24.5535 20.3975 24.0675L18.6373 22.2921ZM11.1164 28.4692C11.2626 28.4209 11.5765 28.3861 12.1393 28.4259C12.6767 28.4639 13.3044 28.5572 14.0233 28.6692C15.3882 28.8817 17.1145 29.1739 18.5954 29.0401L18.3705 26.5503C17.2651 26.6501 15.8879 26.4294 14.408 26.199C13.7044 26.0894 12.9744 25.9787 12.3156 25.9321C11.6823 25.8873 10.9617 25.8874 10.332 26.0955L11.1164 28.4692ZM18.5954 29.0401C20.6007 28.859 21.5903 28.907 23.6825 27.8948L22.5937 25.6443C20.9833 26.4235 20.4681 26.3608 18.3705 26.5503L18.5954 29.0401ZM23.6825 27.8948C25.5705 26.9813 27.4396 24.9132 28.5543 23.5485L26.6182 21.9669C25.4913 23.3465 23.9288 24.9984 22.5937 25.6443L23.6825 27.8948ZM23.6639 19.3598L21.6153 21.3909L23.3755 23.1663L25.4241 21.1352L23.6639 19.3598ZM20.3009 21.9298H16.9312V24.4298H20.3009V21.9298ZM21.6153 21.3909C21.2685 21.7348 20.7959 21.9298 20.3009 21.9298V24.4298C21.4521 24.4298 22.5582 23.9765 23.3755 23.1663L21.6153 21.3909ZM27.8026 18.9525C26.5023 18.0931 24.7717 18.2616 23.6639 19.3598L25.4241 21.1352C25.689 20.8725 26.1091 20.8299 26.4241 21.0381L27.8026 18.9525ZM28.5543 23.5485C29.7753 22.0539 29.311 19.9495 27.8026 18.9525L26.4241 21.0381C26.8028 21.2884 26.8248 21.7141 26.6182 21.9669L28.5543 23.5485ZM5.03449 19.3016H9.17247V16.8016H5.03449V19.3016ZM8.95696 19.0772V28.308H11.457V19.0772H8.95696ZM9.17247 28.0837H5.03449V30.5837H9.17247V28.0837ZM5.25 28.308V19.0772H2.75V28.308H5.25ZM5.03449 28.0837C5.14336 28.0837 5.25 28.174 5.25 28.308H2.75C2.75 29.5749 3.78296 30.5837 5.03449 30.5837V28.0837ZM8.95696 28.308C8.95696 28.174 9.0636 28.0837 9.17247 28.0837V30.5837C10.424 30.5837 11.457 29.5749 11.457 28.308H8.95696ZM9.17247 19.3016C9.0636 19.3016 8.95696 19.2113 8.95696 19.0772H11.457C11.457 17.8103 10.424 16.8016 9.17247 16.8016V19.3016ZM5.03449 16.8016C3.78295 16.8016 2.75 17.8103 2.75 19.0772H5.25C5.25 19.2113 5.14336 19.3016 5.03449 19.3016V16.8016ZM11.2794 21.2228L12.8539 20.4423L11.7435 18.2024L10.169 18.9829L11.2794 21.2228ZM15.5372 19.8144H15.9614V17.3144H15.5372V19.8144ZM17.5405 20.0241L19.7149 20.612L20.3675 18.1987L18.193 17.6107L17.5405 20.0241ZM19.8501 21.0898L18.6373 22.2921L20.3975 24.0675L21.6102 22.8651L19.8501 21.0898ZM19.7149 20.612C19.9447 20.6742 20.0008 20.9403 19.8501 21.0898L21.6102 22.8651C23.1444 21.3441 22.4366 18.7582 20.3675 18.1987L19.7149 20.612ZM15.9614 19.8144C16.4949 19.8144 17.026 19.885 17.5405 20.0241L18.193 17.6107C17.4656 17.4141 16.7152 17.3144 15.9614 17.3144V19.8144ZM12.8539 20.4423C13.6865 20.0296 14.6052 19.8144 15.5372 19.8144V17.3144C14.2207 17.3144 12.9219 17.6183 11.7435 18.2024L12.8539 20.4423ZM22.4054 10.8721C22.4054 12.4374 21.1225 13.7247 19.5174 13.7247V16.2247C22.483 16.2247 24.9054 13.8384 24.9054 10.8721H22.4054ZM19.5174 13.7247C17.9123 13.7247 16.6294 12.4374 16.6294 10.8721H14.1294C14.1294 13.8384 16.5519 16.2247 19.5174 16.2247V13.7247ZM16.6294 10.8721C16.6294 9.3068 17.9123 8.01956 19.5174 8.01956V5.51956C16.5519 5.51956 14.1294 7.90588 14.1294 10.8721H16.6294ZM19.5174 8.01956C21.1225 8.01956 22.4054 9.3068 22.4054 10.8721H24.9054C24.9054 7.90587 22.483 5.51956 19.5174 5.51956V8.01956ZM15.3794 9.62212C13.7743 9.62212 12.4915 8.33488 12.4915 6.76956H9.99146C9.99146 9.7358 12.4139 12.1221 15.3794 12.1221V9.62212ZM12.4915 6.76956C12.4915 5.20424 13.7743 3.91699 15.3794 3.91699V1.41699C12.4139 1.41699 9.99146 3.80331 9.99146 6.76956H12.4915ZM15.3794 3.91699C16.9846 3.91699 18.2674 5.20424 18.2674 6.76956H20.7674C20.7674 3.80331 18.345 1.41699 15.3794 1.41699V3.91699Z" fill="black"/>
</svg>
