<svg width="24" height="24" viewBox="0 0 24 24" fill="none" xmlns="http://www.w3.org/2000/svg">
<path d="M2 21.2502C1.58579 21.2502 1.25 21.586 1.25 22.0002C1.25 22.4145 1.58579 22.7502 2 22.7502V21.2502ZM22 22.7502C22.4142 22.7502 22.75 22.4145 22.75 22.0002C22.75 21.586 22.4142 21.2502 22 21.2502V22.7502ZM3 9.97023L3.75 9.97335V9.97023H3ZM3.77 8.40029L3.30924 7.80848L3.30447 7.81225L3.77 8.40029ZM10.77 2.95027L10.3095 2.35826L10.3093 2.35849L10.77 2.95027ZM13.23 2.95027L13.6902 2.35807L13.6865 2.3552L13.23 2.95027ZM20.23 8.39028L19.7698 8.98247L19.7704 8.98294L20.23 8.39028ZM9.5 22.0002H8.75C8.75 22.4145 9.08579 22.7502 9.5 22.7502V22.0002ZM14.5 22.0002V22.7502C14.9142 22.7502 15.25 22.4145 15.25 22.0002H14.5ZM18.25 7.00774C18.2542 7.42194 18.5933 7.75435 19.0075 7.75021C19.4217 7.74606 19.7541 7.40694 19.75 6.99274L18.25 7.00774ZM18.97 4.00024L19.72 3.99274C19.7159 3.58148 19.3813 3.25024 18.97 3.25024V4.00024ZM14.57 3.25024C14.1558 3.25024 13.82 3.58603 13.82 4.00024C13.82 4.41446 14.1558 4.75024 14.57 4.75024V3.25024ZM2 22.7502H22V21.2502H2V22.7502ZM3.69999 22.0034L3.74999 9.97335L2.25001 9.96711L2.20001 21.9971L3.69999 22.0034ZM3.75 9.97023C3.75 9.59767 3.92864 9.23127 4.23553 8.98832L3.30447 7.81225C2.65136 8.3293 2.25 9.12279 2.25 9.97023H3.75ZM4.23075 8.99207L11.2307 3.54206L10.3093 2.35849L3.30925 7.8085L4.23075 8.99207ZM11.2305 3.54229C11.6778 3.19437 12.3109 3.19048 12.7735 3.54535L13.6865 2.3552C12.6891 1.59007 11.3022 1.58617 10.3095 2.35826L11.2305 3.54229ZM12.7698 3.54247L19.7698 8.98247L20.6902 7.79808L13.6902 2.35808L12.7698 3.54247ZM19.7704 8.98294C20.0745 9.21877 20.25 9.57859 20.25 9.97023H21.75C21.75 9.12187 21.3655 8.32178 20.6896 7.79761L19.7704 8.98294ZM20.25 9.97023V22.0003H21.75V9.97023H20.25ZM13 16.2502H11V17.7502H13V16.2502ZM11 16.2502C9.75579 16.2502 8.75 17.256 8.75 18.5002H10.25C10.25 18.0845 10.5842 17.7502 11 17.7502V16.2502ZM8.75 18.5002V22.0002H10.25V18.5002H8.75ZM9.5 22.7502H14.5V21.2502H9.5V22.7502ZM15.25 22.0002V18.5002H13.75V22.0002H15.25ZM15.25 18.5002C15.25 17.256 14.2442 16.2502 13 16.2502V17.7502C13.4158 17.7502 13.75 18.0845 13.75 18.5002H15.25ZM9.5 13.0002H7.5V14.5002H9.5V13.0002ZM7.5 13.0002C7.36421 13.0002 7.25 12.886 7.25 12.7502H5.75C5.75 13.7145 6.53579 14.5002 7.5 14.5002V13.0002ZM7.25 12.7502V11.2502H5.75V12.7502H7.25ZM7.25 11.2502C7.25 11.1145 7.36421 11.0002 7.5 11.0002V9.50024C6.53579 9.50024 5.75 10.286 5.75 11.2502H7.25ZM7.5 11.0002H9.5V9.50024H7.5V11.0002ZM9.5 11.0002C9.63579 11.0002 9.75 11.1145 9.75 11.2502H11.25C11.25 10.286 10.4642 9.50024 9.5 9.50024V11.0002ZM9.75 11.2502V12.7502H11.25V11.2502H9.75ZM9.75 12.7502C9.75 12.886 9.63579 13.0002 9.5 13.0002V14.5002C10.4642 14.5002 11.25 13.7145 11.25 12.7502H9.75ZM16.5 13.0002H14.5V14.5002H16.5V13.0002ZM14.5 13.0002C14.3642 13.0002 14.25 12.886 14.25 12.7502H12.75C12.75 13.7145 13.5358 14.5002 14.5 14.5002V13.0002ZM14.25 12.7502V11.2502H12.75V12.7502H14.25ZM14.25 11.2502C14.25 11.1145 14.3642 11.0002 14.5 11.0002V9.50024C13.5358 9.50024 12.75 10.286 12.75 11.2502H14.25ZM14.5 11.0002H16.5V9.50024H14.5V11.0002ZM16.5 11.0002C16.6358 11.0002 16.75 11.1145 16.75 11.2502H18.25C18.25 10.286 17.4642 9.50024 16.5 9.50024V11.0002ZM16.75 11.2502V12.7502H18.25V11.2502H16.75ZM16.75 12.7502C16.75 12.886 16.6358 13.0002 16.5 13.0002V14.5002C17.4642 14.5002 18.25 13.7145 18.25 12.7502H16.75ZM19.75 6.99274L19.72 3.99274L18.22 4.00774L18.25 7.00774L19.75 6.99274ZM18.97 3.25024H14.57V4.75024H18.97V3.25024Z" fill="#847F79"/>
</svg>
