<svg width="50" height="50" viewBox="0 0 50 50" fill="none" xmlns="http://www.w3.org/2000/svg">
<path d="M9.46458 37.1208C11.5542 35.5229 13.8896 34.263 16.4708 33.3411C19.0521 32.4193 21.7562 31.9583 24.5833 31.9583C27.4104 31.9583 30.1146 32.4193 32.6958 33.3411C35.2771 34.263 37.6125 35.5229 39.7021 37.1208C41.1361 35.441 42.2526 33.5358 43.0516 31.4052C43.8505 29.2747 44.25 27.0007 44.25 24.5833C44.25 19.134 42.3345 14.4939 38.5036 10.663C34.6727 6.83212 30.0326 4.91667 24.5833 4.91667C19.134 4.91667 14.4939 6.83212 10.663 10.663C6.83212 14.4939 4.91667 19.134 4.91667 24.5833C4.91667 27.0007 5.31615 29.2747 6.1151 31.4052C6.91406 33.5358 8.03056 35.441 9.46458 37.1208ZM24.5833 27.0417C22.166 27.0417 20.1276 26.212 18.4682 24.5526C16.8089 22.8932 15.9792 20.8549 15.9792 18.4375C15.9792 16.0201 16.8089 13.9818 18.4682 12.3224C20.1276 10.663 22.166 9.83333 24.5833 9.83333C27.0007 9.83333 29.0391 10.663 30.6984 12.3224C32.3578 13.9818 33.1875 16.0201 33.1875 18.4375C33.1875 20.8549 32.3578 22.8932 30.6984 24.5526C29.0391 26.212 27.0007 27.0417 24.5833 27.0417ZM24.5833 49.1667C21.1826 49.1667 17.9868 48.5214 14.9958 47.2307C12.0049 45.9401 9.40312 44.1885 7.19062 41.976C4.97812 39.7635 3.22656 37.1618 1.93594 34.1708C0.645312 31.1799 0 27.984 0 24.5833C0 21.1826 0.645312 17.9868 1.93594 14.9958C3.22656 12.0049 4.97812 9.40312 7.19062 7.19062C9.40312 4.97812 12.0049 3.22656 14.9958 1.93594C17.9868 0.645312 21.1826 0 24.5833 0C27.984 0 31.1799 0.645312 34.1708 1.93594C37.1618 3.22656 39.7635 4.97812 41.976 7.19062C44.1885 9.40312 45.9401 12.0049 47.2307 14.9958C48.5214 17.9868 49.1667 21.1826 49.1667 24.5833C49.1667 27.984 48.5214 31.1799 47.2307 34.1708C45.9401 37.1618 44.1885 39.7635 41.976 41.976C39.7635 44.1885 37.1618 45.9401 34.1708 47.2307C31.1799 48.5214 27.984 49.1667 24.5833 49.1667Z" fill="#F69C42"/>
</svg>
