<svg width="15" height="14" viewBox="0 0 15 14" fill="none" xmlns="http://www.w3.org/2000/svg">
<path d="M10.5582 3.61828C10.5574 3.61744 10.5567 3.61667 10.556 3.61596L9.46382 1.57724C9.46363 1.57688 9.46343 1.57651 9.46324 1.57614C9.07726 0.852477 8.41197 0.211914 7.49928 0.211914C6.58779 0.211914 5.92107 0.851141 5.53211 1.5734L5.53109 1.57532L4.43778 3.61616C4.43703 3.61697 4.43619 3.61786 4.43527 3.61883C4.42238 3.63231 4.40054 3.65178 4.37085 3.67232C4.34133 3.69275 4.31245 3.70843 4.28915 3.71855C4.27818 3.72332 4.271 3.72576 4.26777 3.72678L2.28433 4.03435L2.28386 4.03442C1.50506 4.15557 0.641286 4.53858 0.342973 5.41049C0.0356338 6.30878 0.523931 7.1302 1.099 7.66693L2.63833 9.10364C2.63908 9.10482 2.63995 9.10624 2.64093 9.10793C2.64884 9.12146 2.65867 9.14258 2.66668 9.16868C2.67415 9.19304 2.67749 9.21345 2.67858 9.22648L2.24195 10.9886C2.24194 10.9886 2.24193 10.9886 2.24192 10.9887C2.03921 11.8064 2.04803 12.8837 2.91687 13.4754C3.73672 14.0338 4.74819 13.7438 5.497 13.329C5.49704 13.329 5.49707 13.329 5.4971 13.329L7.35505 12.3024C7.35821 12.3012 7.36872 12.2974 7.38767 12.2932C7.41818 12.2865 7.45799 12.2817 7.50241 12.2817C7.54688 12.2817 7.58572 12.2865 7.61444 12.2929C7.62908 12.2961 7.63773 12.299 7.64112 12.3003L9.50396 13.3295L9.50476 13.3299C10.2521 13.7419 11.2647 14.0362 12.0853 13.4778C12.9562 12.8853 12.9596 11.8044 12.7584 10.9895L12.7582 10.9887L12.3216 9.22648C12.3226 9.21345 12.326 9.19304 12.3335 9.16868C12.3415 9.14258 12.3513 9.12146 12.3592 9.10793C12.3602 9.10625 12.3611 9.10482 12.3618 9.10364L13.8986 7.66925C13.8991 7.6688 13.8996 7.66836 13.9001 7.66792C14.4785 7.13113 14.9688 6.3087 14.6588 5.40859C14.3589 4.53772 13.4942 4.15543 12.7163 4.03442L12.7158 4.03435L10.7281 3.72612C10.7252 3.72527 10.7171 3.72272 10.704 3.71709C10.6802 3.70688 10.6513 3.69124 10.6219 3.67103C10.5924 3.65069 10.5708 3.63147 10.5582 3.61828ZM4.44295 3.61019C4.44296 3.61019 4.44275 3.61046 4.44232 3.61099L4.44295 3.61019ZM7.63482 12.2968L7.63521 12.297L7.63482 12.2968ZM10.5513 3.61067C10.5509 3.61018 10.5507 3.60993 10.5507 3.60993L10.5513 3.61067Z" stroke="#E78727" stroke-width="2" stroke-linecap="round" stroke-linejoin="round"/>
</svg>
