<svg width="59" height="59" viewBox="0 0 59 59" fill="none" xmlns="http://www.w3.org/2000/svg">
<path d="M14.3816 42.0378C16.4712 40.4399 18.8066 39.18 21.3878 38.2581C23.9691 37.3363 26.6732 36.8753 29.5003 36.8753C32.3274 36.8753 35.0316 37.3363 37.6128 38.2581C40.1941 39.18 42.5295 40.4399 44.6191 42.0378C46.0531 40.358 47.1696 38.4528 47.9686 36.3222C48.7675 34.1916 49.167 31.9177 49.167 29.5003C49.167 24.051 47.2515 19.4109 43.4206 15.58C39.5897 11.7491 34.9496 9.83366 29.5003 9.83366C24.051 9.83366 19.4109 11.7491 15.58 15.58C11.7491 19.4109 9.83366 24.051 9.83366 29.5003C9.83366 31.9177 10.2331 34.1916 11.0321 36.3222C11.8311 38.4528 12.9475 40.358 14.3816 42.0378ZM29.5003 31.9587C27.083 31.9587 25.0446 31.129 23.3852 29.4696C21.7258 27.8102 20.8962 25.7719 20.8962 23.3545C20.8962 20.9371 21.7258 18.8988 23.3852 17.2394C25.0446 15.58 27.083 14.7503 29.5003 14.7503C31.9177 14.7503 33.9561 15.58 35.6154 17.2394C37.2748 18.8988 38.1045 20.9371 38.1045 23.3545C38.1045 25.7719 37.2748 27.8102 35.6154 29.4696C33.9561 31.129 31.9177 31.9587 29.5003 31.9587ZM29.5003 54.0837C26.0996 54.0837 22.9038 53.4383 19.9128 52.1477C16.9219 50.8571 14.3201 49.1055 12.1076 46.893C9.89512 44.6805 8.14355 42.0788 6.85293 39.0878C5.5623 36.0969 4.91699 32.901 4.91699 29.5003C4.91699 26.0996 5.5623 22.9038 6.85293 19.9128C8.14355 16.9219 9.89512 14.3201 12.1076 12.1076C14.3201 9.89512 16.9219 8.14355 19.9128 6.85293C22.9038 5.5623 26.0996 4.91699 29.5003 4.91699C32.901 4.91699 36.0969 5.5623 39.0878 6.85293C42.0788 8.14355 44.6805 9.89512 46.893 12.1076C49.1055 14.3201 50.8571 16.9219 52.1477 19.9128C53.4383 22.9038 54.0837 26.0996 54.0837 29.5003C54.0837 32.901 53.4383 36.0969 52.1477 39.0878C50.8571 42.0788 49.1055 44.6805 46.893 46.893C44.6805 49.1055 42.0788 50.8571 39.0878 52.1477C36.0969 53.4383 32.901 54.0837 29.5003 54.0837Z" fill="#F69C42"/>
</svg>
