<svg width="15" height="14" viewBox="0 0 15 14" fill="none" xmlns="http://www.w3.org/2000/svg">
<path d="M10.5584 3.61828C10.5576 3.61744 10.5569 3.61667 10.5562 3.61596L9.46407 1.57724C9.46387 1.57688 9.46368 1.57651 9.46348 1.57614C9.07751 0.852477 8.41221 0.211914 7.49953 0.211914C6.58803 0.211914 5.92131 0.851141 5.53236 1.5734L5.53133 1.57532L4.43802 3.61616C4.43727 3.61697 4.43644 3.61786 4.43551 3.61883C4.42263 3.63231 4.40078 3.65178 4.3711 3.67232C4.34158 3.69275 4.3127 3.70843 4.2894 3.71855C4.27843 3.72332 4.27124 3.72576 4.26801 3.72678L2.28457 4.03435L2.2841 4.03442C1.5053 4.15557 0.64153 4.53858 0.343217 5.41049C0.0358779 6.30878 0.524175 7.1302 1.09924 7.66693L2.63858 9.10364C2.63932 9.10482 2.64019 9.10624 2.64118 9.10793C2.64908 9.12146 2.65892 9.14258 2.66692 9.16868C2.67439 9.19304 2.67773 9.21345 2.67882 9.22648L2.2422 10.9886C2.24219 10.9886 2.24217 10.9886 2.24216 10.9887C2.03946 11.8064 2.04827 12.8837 2.91711 13.4754C3.73697 14.0338 4.74844 13.7438 5.49725 13.329C5.49728 13.329 5.49731 13.329 5.49734 13.329L7.35529 12.3024C7.35845 12.3012 7.36897 12.2974 7.38792 12.2932C7.41843 12.2865 7.45823 12.2817 7.50265 12.2817C7.54712 12.2817 7.58597 12.2865 7.61469 12.2929C7.62932 12.2961 7.63798 12.299 7.64136 12.3003L9.5042 13.3295L9.505 13.3299C10.2523 13.7419 11.2649 14.0362 12.0855 13.4778C12.9564 12.8853 12.9599 11.8044 12.7587 10.9895L12.7585 10.9887L12.3218 9.22648C12.3229 9.21345 12.3262 9.19304 12.3337 9.16868C12.3417 9.14258 12.3515 9.12146 12.3594 9.10793C12.3604 9.10625 12.3613 9.10482 12.362 9.10364L13.8989 7.66925C13.8994 7.6688 13.8998 7.66836 13.9003 7.66792C14.4787 7.13113 14.9691 6.3087 14.6591 5.40859C14.3592 4.53772 13.4944 4.15543 12.7165 4.03442L12.716 4.03435L10.7283 3.72612C10.7255 3.72527 10.7173 3.72272 10.7042 3.71709C10.6805 3.70688 10.6515 3.69124 10.6222 3.67103C10.5926 3.65069 10.5711 3.63147 10.5584 3.61828ZM4.44319 3.61019C4.4432 3.61019 4.443 3.61046 4.44256 3.61099L4.44319 3.61019ZM7.63507 12.2968L7.63546 12.297L7.63507 12.2968ZM10.5516 3.61067C10.5512 3.61018 10.551 3.60993 10.551 3.60993L10.5516 3.61067Z" stroke="#E78727" stroke-width="2" stroke-linecap="round" stroke-linejoin="round"/>
</svg>
