<svg width="44" height="44" viewBox="0 0 44 44" fill="none" xmlns="http://www.w3.org/2000/svg">
<path d="M22.0003 3.66699C11.8803 3.66699 3.66699 11.8803 3.66699 22.0003C3.66699 32.1203 11.8803 40.3337 22.0003 40.3337C32.1203 40.3337 40.3337 32.1203 40.3337 22.0003C40.3337 11.8803 32.1203 3.66699 22.0003 3.66699ZM13.4753 33.917C15.877 32.1937 18.8103 31.167 22.0003 31.167C25.1903 31.167 28.1237 32.1937 30.5253 33.917C28.1237 35.6403 25.1903 36.667 22.0003 36.667C18.8103 36.667 15.877 35.6403 13.4753 33.917ZM33.257 31.387C30.1587 28.967 26.2537 27.5003 22.0003 27.5003C17.747 27.5003 13.842 28.967 10.7437 31.387C8.61699 28.8387 7.33366 25.5753 7.33366 22.0003C7.33366 13.897 13.897 7.33366 22.0003 7.33366C30.1037 7.33366 36.667 13.897 36.667 22.0003C36.667 25.5753 35.3837 28.8387 33.257 31.387Z" fill="black"/>
<path d="M22.0003 11.0003C18.462 11.0003 15.5837 13.8787 15.5837 17.417C15.5837 20.9553 18.462 23.8337 22.0003 23.8337C25.5387 23.8337 28.417 20.9553 28.417 17.417C28.417 13.8787 25.5387 11.0003 22.0003 11.0003ZM22.0003 20.167C20.4787 20.167 19.2503 18.9387 19.2503 17.417C19.2503 15.8953 20.4787 14.667 22.0003 14.667C23.522 14.667 24.7503 15.8953 24.7503 17.417C24.7503 18.9387 23.522 20.167 22.0003 20.167Z" fill="black"/>
</svg>
