<svg width="27" height="27" viewBox="0 0 27 27" fill="none" xmlns="http://www.w3.org/2000/svg">
<path d="M23.625 12.9375C23.625 18.8438 18.8438 23.625 12.9375 23.625C7.03125 23.625 2.25 18.8438 2.25 12.9375C2.25 7.03125 7.03125 2.25 12.9375 2.25M24.75 24.75L22.5 22.5M16.3125 6.89625C15.9188 5.65875 16.38 4.1175 17.685 3.70125C18.3713 3.47625 19.215 3.6675 19.6988 4.33125C20.1488 3.645 21.0263 3.4875 21.7013 3.70125C23.0063 4.1175 23.4675 5.65875 23.0738 6.89625C22.455 8.865 20.295 9.88875 19.6988 9.88875C19.0913 9.88875 16.9537 8.8875 16.3125 6.89625Z" stroke="#7B7979" stroke-width="1.5" stroke-linecap="round" stroke-linejoin="round"/>
</svg>
