<svg width="60" height="60" viewBox="0 0 60 60" fill="none" xmlns="http://www.w3.org/2000/svg">
<path d="M25 5.625C23.9645 5.625 23.125 6.46447 23.125 7.5V9.375H12.5C11.4645 9.375 10.625 10.2145 10.625 11.25C10.625 12.2855 11.4645 13.125 12.5 13.125H47.5C48.5355 13.125 49.375 12.2855 49.375 11.25C49.375 10.2145 48.5355 9.375 47.5 9.375H36.875V7.5C36.875 6.46447 36.0355 5.625 35 5.625H25Z" fill="black"/>
<path d="M25 26.625C26.0355 26.625 26.875 27.4645 26.875 28.5L26.875 46C26.875 47.0355 26.0355 47.875 25 47.875C23.9645 47.875 23.125 47.0355 23.125 46L23.125 28.5C23.125 27.4645 23.9645 26.625 25 26.625Z" fill="black"/>
<path d="M36.875 28.5C36.875 27.4645 36.0355 26.625 35 26.625C33.9645 26.625 33.125 27.4645 33.125 28.5V46C33.125 47.0355 33.9645 47.875 35 47.875C36.0355 47.875 36.875 47.0355 36.875 46V28.5Z" fill="black"/>
<path fill-rule="evenodd" clip-rule="evenodd" d="M14.9786 19.7929C15.0841 18.8434 15.8867 18.125 16.8421 18.125H43.1579C44.1133 18.125 44.9159 18.8434 45.0214 19.7929L45.5218 24.2963C46.4288 32.4596 46.4288 40.6983 45.5218 48.8616L45.4725 49.3049C45.1125 52.5453 42.6011 55.1291 39.3723 55.5812C33.1544 56.4517 26.8456 56.4517 20.6277 55.5812C17.3989 55.1291 14.8875 52.5453 14.5274 49.3049L14.4782 48.8616C13.5712 40.6983 13.5712 32.4596 14.4782 24.2963L14.9786 19.7929ZM18.5203 21.875L18.2053 24.7104C17.3288 32.5985 17.3288 40.5594 18.2053 48.4475L18.2545 48.8908C18.4253 50.4276 19.6163 51.653 21.1476 51.8674C27.0206 52.6896 32.9794 52.6896 38.8524 51.8674C40.3837 51.653 41.5747 50.4276 41.7455 48.8908L41.7947 48.4475C42.6712 40.5594 42.6712 32.5985 41.7947 24.7104L41.4797 21.875H18.5203Z" fill="black"/>
<path d="M25 5.625C23.9645 5.625 23.125 6.46447 23.125 7.5V9.375H12.5C11.4645 9.375 10.625 10.2145 10.625 11.25C10.625 12.2855 11.4645 13.125 12.5 13.125H47.5C48.5355 13.125 49.375 12.2855 49.375 11.25C49.375 10.2145 48.5355 9.375 47.5 9.375H36.875V7.5C36.875 6.46447 36.0355 5.625 35 5.625H25Z" stroke="black" stroke-linecap="round" stroke-linejoin="round"/>
<path d="M25 26.625C26.0355 26.625 26.875 27.4645 26.875 28.5L26.875 46C26.875 47.0355 26.0355 47.875 25 47.875C23.9645 47.875 23.125 47.0355 23.125 46L23.125 28.5C23.125 27.4645 23.9645 26.625 25 26.625Z" stroke="black" stroke-linecap="round" stroke-linejoin="round"/>
<path d="M36.875 28.5C36.875 27.4645 36.0355 26.625 35 26.625C33.9645 26.625 33.125 27.4645 33.125 28.5V46C33.125 47.0355 33.9645 47.875 35 47.875C36.0355 47.875 36.875 47.0355 36.875 46V28.5Z" stroke="black" stroke-linecap="round" stroke-linejoin="round"/>
<path fill-rule="evenodd" clip-rule="evenodd" d="M14.9786 19.7929C15.0841 18.8434 15.8867 18.125 16.8421 18.125H43.1579C44.1133 18.125 44.9159 18.8434 45.0214 19.7929L45.5218 24.2963C46.4288 32.4596 46.4288 40.6983 45.5218 48.8616L45.4725 49.3049C45.1125 52.5453 42.6011 55.1291 39.3723 55.5812C33.1544 56.4517 26.8456 56.4517 20.6277 55.5812C17.3989 55.1291 14.8875 52.5453 14.5274 49.3049L14.4782 48.8616C13.5712 40.6983 13.5712 32.4596 14.4782 24.2963L14.9786 19.7929ZM18.5203 21.875L18.2053 24.7104C17.3288 32.5985 17.3288 40.5594 18.2053 48.4475L18.2545 48.8908C18.4253 50.4276 19.6163 51.653 21.1476 51.8674C27.0206 52.6896 32.9794 52.6896 38.8524 51.8674C40.3837 51.653 41.5747 50.4276 41.7455 48.8908L41.7947 48.4475C42.6712 40.5594 42.6712 32.5985 41.7947 24.7104L41.4797 21.875H18.5203Z" stroke="black" stroke-linecap="round" stroke-linejoin="round"/>
</svg>
