<svg width="30" height="30" viewBox="0 0 30 30" fill="none" xmlns="http://www.w3.org/2000/svg">
<path d="M15.25 14.75L13.4875 16.5125C12.5125 17.4875 12.5125 19.075 13.4875 20.05C14.4625 21.025 16.05 21.025 17.025 20.05L19.8 17.275C21.75 15.325 21.75 12.1625 19.8 10.2C17.85 8.24999 14.6875 8.24999 12.725 10.2L9.70001 13.225C8.02501 14.9 8.02501 17.6125 9.70001 19.2875M27.5 15C27.5 21.9036 21.9036 27.5 15 27.5C8.09644 27.5 2.5 21.9036 2.5 15C2.5 8.09644 8.09644 2.5 15 2.5C21.9036 2.5 27.5 8.09644 27.5 15Z" stroke="#A3A3A3" stroke-width="1.5" stroke-linecap="round" stroke-linejoin="round"/>
</svg>
