<svg width="24" height="24" viewBox="0 0 24 24" fill="none" xmlns="http://www.w3.org/2000/svg">
<path d="M13.4197 3.25039L12.8894 3.78072L12.923 3.81433L12.9606 3.84343L13.4197 3.25039ZM4.91973 4.75039L5.63222 4.98463L5.64073 4.95874L5.64734 4.93229L4.91973 4.75039ZM2.51973 12.0504L3.22604 12.3026L3.22924 12.2937L3.23221 12.2846L2.51973 12.0504ZM9.41973 15.8504L10.1608 15.9662L10.1622 15.9565L9.41973 15.8504ZM8.91973 19.0504L9.65187 19.2131L9.65705 19.1898L9.66074 19.1662L8.91973 19.0504ZM10.2197 21.2504L10.4831 20.5481L10.4701 20.5433L10.4569 20.5389L10.2197 21.2504ZM12.4197 20.5504L11.7973 20.132L11.7957 20.1344L12.4197 20.5504ZM16.9789 5.05735L13.8789 2.65735L12.9606 3.84343L16.0606 6.24343L16.9789 5.05735ZM13.9501 2.72006C13.6167 2.38671 13.1467 2.19238 12.7508 2.07925C12.3365 1.96087 11.8922 1.90039 11.5197 1.90039V3.40039C11.7473 3.40039 12.053 3.43991 12.3387 3.52153C12.6427 3.6084 12.8228 3.71407 12.8894 3.78072L13.9501 2.72006ZM11.5197 1.90039H7.71973V3.40039H11.5197V1.90039ZM7.71973 1.90039C6.93997 1.90039 6.16276 2.18896 5.53935 2.64512C4.9154 3.10166 4.39287 3.76553 4.19213 4.56849L5.64734 4.93229C5.7466 4.53525 6.02406 4.14912 6.42512 3.85566C6.82671 3.56182 7.2995 3.40039 7.71973 3.40039V1.90039ZM4.20725 4.51615L1.80725 11.8161L3.23221 12.2846L5.63222 4.98463L4.20725 4.51615ZM1.81343 11.7981C1.48941 12.7054 1.60129 13.6218 2.11594 14.3203C2.62706 15.014 3.46682 15.4004 4.41973 15.4004V13.9004C3.87265 13.9004 3.5124 13.6868 3.32352 13.4305C3.13817 13.1789 3.05006 12.7954 3.22604 12.3026L1.81343 11.7981ZM4.41973 15.4004H8.41973V13.9004H4.41973V15.4004ZM8.41973 15.4004C8.50958 15.4004 8.57802 15.4367 8.61985 15.4841C8.65626 15.5254 8.69746 15.603 8.67727 15.7443L10.1622 15.9565C10.3286 14.7918 9.46308 13.9004 8.41973 13.9004V15.4004ZM8.67872 15.7346L8.17872 18.9346L9.66074 19.1662L10.1607 15.9662L8.67872 15.7346ZM8.18759 18.8877C7.89826 20.1897 8.7446 21.5492 9.98256 21.9619L10.4569 20.5389C9.89487 20.3515 9.5412 19.7111 9.65187 19.2131L8.18759 18.8877ZM9.95639 21.9526C10.5534 22.1765 11.1867 22.1283 11.7135 21.9472C12.2354 21.7678 12.7347 21.4301 13.0438 20.9664L11.7957 20.1344C11.7048 20.2707 11.5041 20.433 11.2259 20.5286C10.9528 20.6225 10.686 20.6243 10.4831 20.5481L9.95639 21.9526ZM13.0422 20.9688L17.1422 14.8688L15.8973 14.032L11.7973 20.132L13.0422 20.9688ZM20.8697 5.65039V15.4504H22.3697V5.65039H20.8697ZM20.8697 15.4504C20.8697 16.0659 20.7347 16.2832 20.636 16.3743C20.5226 16.479 20.2622 16.6004 19.6197 16.6004V18.1004C20.3772 18.1004 21.1169 17.9718 21.6534 17.4765C22.2047 16.9676 22.3697 16.2349 22.3697 15.4504H20.8697ZM19.6197 16.6004H18.6197V18.1004H19.6197V16.6004ZM18.6197 16.6004C17.9772 16.6004 17.7169 16.479 17.6034 16.3743C17.5047 16.2832 17.3697 16.0659 17.3697 15.4504H15.8697C15.8697 16.2349 16.0347 16.9676 16.586 17.4765C17.1226 17.9718 17.8622 18.1004 18.6197 18.1004V16.6004ZM17.3697 15.4504V5.65039H15.8697V15.4504H17.3697ZM17.3697 5.65039C17.3697 5.0349 17.5047 4.81762 17.6034 4.72649C17.7169 4.62177 17.9772 4.50039 18.6197 4.50039V3.00039C17.8622 3.00039 17.1226 3.12901 16.586 3.62429C16.0347 4.13317 15.8697 4.86588 15.8697 5.65039H17.3697ZM18.6197 4.50039H19.6197V3.00039H18.6197V4.50039ZM19.6197 4.50039C20.2622 4.50039 20.5226 4.62177 20.636 4.72649C20.7347 4.81762 20.8697 5.0349 20.8697 5.65039H22.3697C22.3697 4.86588 22.2047 4.13317 21.6534 3.62429C21.1169 3.12901 20.3772 3.00039 19.6197 3.00039V4.50039Z" fill="#292D32"/>
</svg>
