<svg width="24" height="24" viewBox="0 0 24 24" fill="none" xmlns="http://www.w3.org/2000/svg">
<path d="M10.5799 20.7505L11.1102 20.2201L11.0766 20.1865L11.039 20.1574L10.5799 20.7505ZM19.0799 19.2505L18.3674 19.0162L18.3589 19.0421L18.3523 19.0686L19.0799 19.2505ZM21.4799 11.9505L20.7736 11.6982L20.7704 11.7072L20.7674 11.7162L21.4799 11.9505ZM14.5799 8.15046L13.8388 8.03466L13.8374 8.04439L14.5799 8.15046ZM15.0799 4.95046L14.3477 4.78776L14.3426 4.81107L14.3389 4.83467L15.0799 4.95046ZM13.7799 2.75046L13.5165 3.4527L13.5295 3.45758L13.5427 3.46197L13.7799 2.75046ZM11.5799 3.45046L12.2024 3.86884L12.2039 3.86648L11.5799 3.45046ZM7.02075 18.9435L10.1208 21.3435L11.039 20.1574L7.93901 17.7574L7.02075 18.9435ZM10.0496 21.2808C10.3829 21.6141 10.8529 21.8085 11.2488 21.9216C11.6632 22.04 12.1074 22.1005 12.4799 22.1005V20.6005C12.2523 20.6005 11.9466 20.5609 11.6609 20.4793C11.3569 20.3924 11.1769 20.2868 11.1102 20.2201L10.0496 21.2808ZM12.4799 22.1005H16.2799V20.6005H12.4799V22.1005ZM16.2799 22.1005C17.0596 22.1005 17.8369 21.8119 18.4603 21.3557C19.0842 20.8992 19.6068 20.2353 19.8075 19.4324L18.3523 19.0686C18.253 19.4656 17.9756 19.8517 17.5745 20.1452C17.1729 20.439 16.7001 20.6005 16.2799 20.6005V22.1005ZM19.7924 19.4847L22.1924 12.1847L20.7674 11.7162L18.3674 19.0162L19.7924 19.4847ZM22.1862 12.2027C22.5102 11.2955 22.3983 10.379 21.8837 9.68056C21.3726 8.98689 20.5328 8.60046 19.5799 8.60046V10.1005C20.127 10.1005 20.4872 10.314 20.6761 10.5704C20.8614 10.8219 20.9496 11.2055 20.7736 11.6982L22.1862 12.2027ZM19.5799 8.60046H15.5799V10.1005H19.5799V8.60046ZM15.5799 8.60046C15.49 8.60046 15.4216 8.56415 15.3798 8.51674C15.3434 8.47548 15.3022 8.39786 15.3223 8.25652L13.8374 8.04439C13.671 9.20905 14.5365 10.1005 15.5799 10.1005V8.60046ZM15.3209 8.26624L15.8209 5.06624L14.3389 4.83467L13.8389 8.03467L15.3209 8.26624ZM15.812 5.11315C16.1014 3.81117 15.255 2.4516 14.0171 2.03894L13.5427 3.46197C14.1047 3.64931 14.4584 4.28974 14.3477 4.78776L15.812 5.11315ZM14.0432 2.04821C13.4462 1.82432 12.8129 1.87258 12.2861 2.05369C11.7642 2.23307 11.265 2.57076 10.9558 3.03443L12.2039 3.86648C12.2948 3.73015 12.4955 3.56784 12.7737 3.47222C13.0468 3.37833 13.3136 3.37659 13.5165 3.4527L14.0432 2.04821ZM10.9574 3.03208L6.85742 9.13208L8.10235 9.96883L12.2023 3.86883L10.9574 3.03208ZM3.12988 18.3505V8.55046H1.62988V18.3505H3.12988ZM3.12988 8.55046C3.12988 7.93497 3.26488 7.71768 3.36359 7.62656C3.47705 7.52183 3.73737 7.40046 4.37988 7.40046V5.90046C3.6224 5.90046 2.88272 6.02908 2.34617 6.52435C1.79489 7.03323 1.62988 7.76594 1.62988 8.55046H3.12988ZM4.37988 7.40046H5.37988V5.90046H4.37988V7.40046ZM5.37988 7.40046C6.0224 7.40046 6.28272 7.52183 6.39617 7.62656C6.49489 7.71768 6.62988 7.93497 6.62988 8.55046H8.12988C8.12988 7.76594 7.96488 7.03323 7.41359 6.52435C6.87705 6.02908 6.13737 5.90046 5.37988 5.90046V7.40046ZM6.62988 8.55046V18.3505H8.12988V8.55046H6.62988ZM6.62988 18.3505C6.62988 18.9659 6.49489 19.1832 6.39617 19.2744C6.28272 19.3791 6.0224 19.5005 5.37988 19.5005V21.0005C6.13737 21.0005 6.87705 20.8718 7.41359 20.3766C7.96488 19.8677 8.12988 19.135 8.12988 18.3505H6.62988ZM5.37988 19.5005H4.37988V21.0005H5.37988V19.5005ZM4.37988 19.5005C3.73737 19.5005 3.47705 19.3791 3.36359 19.2744C3.26488 19.1832 3.12988 18.9659 3.12988 18.3505H1.62988C1.62988 19.135 1.79489 19.8677 2.34617 20.3766C2.88272 20.8718 3.6224 21.0005 4.37988 21.0005V19.5005Z" fill="#292D32"/>
</svg>
