<svg width="404" height="68" viewBox="0 0 404 68" fill="none" xmlns="http://www.w3.org/2000/svg">
<g filter="url(#filter0_d_293_4050)">
<path d="M0 10C0 4.47715 4.47715 0 10 0H394C399.523 0 404 4.47715 404 10V58C404 63.5228 399.523 68 394 68H10C4.47716 68 0 63.5229 0 58V10Z" fill="#E0E0E0"/>
<path d="M0.5 10C0.5 4.7533 4.7533 0.5 10 0.5H394C399.247 0.5 403.5 4.7533 403.5 10V58C403.5 63.2467 399.247 67.5 394 67.5H10C4.7533 67.5 0.5 63.2467 0.5 58V10Z" stroke="#A3A3A3"/>
</g>
<defs>
<filter id="filter0_d_293_4050" x="-4" y="0" width="412" height="76" filterUnits="userSpaceOnUse" color-interpolation-filters="sRGB">
<feFlood flood-opacity="0" result="BackgroundImageFix"/>
<feColorMatrix in="SourceAlpha" type="matrix" values="0 0 0 0 0 0 0 0 0 0 0 0 0 0 0 0 0 0 127 0" result="hardAlpha"/>
<feOffset dy="4"/>
<feGaussianBlur stdDeviation="2"/>
<feComposite in2="hardAlpha" operator="out"/>
<feColorMatrix type="matrix" values="0 0 0 0 0 0 0 0 0 0 0 0 0 0 0 0 0 0 0.25 0"/>
<feBlend mode="normal" in2="BackgroundImageFix" result="effect1_dropShadow_293_4050"/>
<feBlend mode="normal" in="SourceGraphic" in2="effect1_dropShadow_293_4050" result="shape"/>
</filter>
</defs>
</svg>
