<svg width="30" height="30" viewBox="0 0 30 30" fill="none" xmlns="http://www.w3.org/2000/svg">
<path d="M11.4 11.4V10.4C10.8477 10.4 10.4 10.8477 10.4 11.4H11.4ZM11.5195 11.4H12.5195C12.5195 10.8477 12.0718 10.4 11.5195 10.4V11.4ZM18.6 11.4V10.4C18.0477 10.4 17.6 10.8477 17.6 11.4H18.6ZM18.7063 11.4H19.7063C19.7063 10.8477 19.2585 10.4 18.7063 10.4V11.4ZM11.5195 11.4961V12.4961C12.0718 12.4961 12.5195 12.0484 12.5195 11.4961H11.5195ZM11.4 11.4961H10.4C10.4 12.0484 10.8477 12.4961 11.4 12.4961V11.4961ZM18.7063 11.4961V12.4961C19.2585 12.4961 19.7063 12.0484 19.7063 11.4961H18.7063ZM18.6 11.4961H17.6C17.6 12.0484 18.0477 12.4961 18.6 12.4961V11.4961ZM11.6902 18.1226C11.3995 17.653 10.7832 17.508 10.3136 17.7987C9.84401 18.0893 9.69897 18.7057 9.98966 19.1753L11.6902 18.1226ZM20.0103 19.1753C20.301 18.7057 20.156 18.0893 19.6864 17.7987C19.2168 17.508 18.6005 17.653 18.3098 18.1226L20.0103 19.1753ZM26 15C26 21.0751 21.0751 26 15 26V28C22.1797 28 28 22.1797 28 15H26ZM15 26C8.92487 26 4 21.0751 4 15H2C2 22.1797 7.8203 28 15 28V26ZM4 15C4 8.92487 8.92487 4 15 4V2C7.8203 2 2 7.8203 2 15H4ZM15 4C21.0751 4 26 8.92487 26 15H28C28 7.8203 22.1797 2 15 2V4ZM11.4 12.4H11.5195V10.4H11.4V12.4ZM18.6 12.4H18.7063V10.4H18.6V12.4ZM10.5195 11.4V11.4961H12.5195V11.4H10.5195ZM11.5195 10.4961H11.4V12.4961H11.5195V10.4961ZM12.4 11.4961V11.4H10.4V11.4961H12.4ZM17.7063 11.4V11.4961H19.7063V11.4H17.7063ZM18.7063 10.4961H18.6V12.4961H18.7063V10.4961ZM19.6 11.4961V11.4H17.6V11.4961H19.6ZM15 19.9999C13.6204 19.9999 12.3953 19.2617 11.6902 18.1226L9.98966 19.1753C11.0344 20.863 12.8817 21.9999 15 21.9999V19.9999ZM18.3098 18.1226C17.6047 19.2617 16.3796 19.9999 15 19.9999V21.9999C17.1183 21.9999 18.9656 20.863 20.0103 19.1753L18.3098 18.1226Z" fill="#A3A3A3"/>
</svg>
