<svg width="31" height="29" viewBox="0 0 31 29" fill="none" xmlns="http://www.w3.org/2000/svg">
<path d="M21.7738 7.54641C21.769 7.54136 21.7651 7.53712 21.7621 7.53374L19.5007 3.30277C19.5004 3.30208 19.5 3.3014 19.4996 3.30071C18.709 1.81486 17.3527 0.510742 15.4986 0.510742C13.647 0.510742 12.2877 1.81208 11.4909 3.29509L11.4889 3.29892L9.22528 7.53407C9.22217 7.53761 9.21809 7.54211 9.21294 7.54751C9.18279 7.57913 9.13407 7.62239 9.06937 7.66727C9.005 7.71192 8.9416 7.74651 8.88939 7.76925C8.85891 7.78252 8.84024 7.78831 8.83411 7.79012L4.73059 8.42791L4.72964 8.42805C3.12743 8.67786 1.37505 9.46426 0.771546 11.2323C0.15072 13.051 1.13416 14.7232 2.31518 15.8281L5.50257 18.8098C5.50539 18.8139 5.50948 18.8202 5.51459 18.829C5.53391 18.8621 5.55647 18.9112 5.57461 18.9704C5.59279 19.0299 5.60068 19.0804 5.60278 19.1132C5.60292 19.1154 5.60303 19.1174 5.60311 19.1192L4.69793 22.7806C4.69792 22.7806 4.69791 22.7807 4.6979 22.7807C4.69789 22.7808 4.69788 22.7808 4.69787 22.7809C4.2813 24.4651 4.30634 26.6537 6.06406 27.8535C7.72688 28.9885 9.78758 28.4032 11.3297 27.5472C11.3299 27.5471 11.33 27.547 11.3302 27.5469L15.1737 25.4185C15.1787 25.4165 15.2045 25.406 15.2546 25.3949C15.3223 25.3799 15.4091 25.3696 15.5051 25.3696C15.6012 25.3696 15.686 25.38 15.7501 25.3942C15.7906 25.4033 15.8124 25.4114 15.8181 25.4137L19.6722 27.548L19.6738 27.5489C21.2131 28.3995 23.2763 28.9935 24.9406 27.8585C26.7024 26.657 26.7166 24.4614 26.303 22.7825L26.3026 22.7809L25.3974 19.1192C25.3975 19.1174 25.3976 19.1154 25.3977 19.1132C25.3998 19.0804 25.4077 19.0299 25.4259 18.9704C25.444 18.9112 25.4666 18.8621 25.4859 18.829C25.491 18.8202 25.4951 18.8139 25.4979 18.8098L28.6803 15.8327C28.6812 15.8319 28.6821 15.8311 28.6829 15.8303C29.871 14.7253 30.8587 13.051 30.2325 11.2284C29.6257 9.46253 27.8713 8.67759 26.2709 8.42805L26.2699 8.42791L22.1581 7.78883C22.1536 7.78756 22.1327 7.78177 22.0969 7.76631C22.0437 7.7434 21.9801 7.70889 21.9161 7.66468C21.8517 7.62021 21.8034 7.57744 21.7738 7.54641ZM5.60327 19.1337C5.60326 19.1337 5.60327 19.1331 5.60334 19.1321L5.60327 19.1337ZM15.8101 25.4092L15.8102 25.4093L15.8101 25.4092ZM25.3971 19.1321C25.3972 19.1331 25.3972 19.1337 25.3972 19.1337L25.3971 19.1321Z" stroke="#F69C42" stroke-width="4" stroke-linecap="round" stroke-linejoin="round"/>
</svg>
