<svg width="31" height="31" viewBox="0 0 31 31" fill="none" xmlns="http://www.w3.org/2000/svg">
<path d="M20.4572 8.86063L20.4572 8.86064C20.5673 9.08552 20.7888 9.33763 21.0768 9.55012C21.3644 9.76231 21.6731 9.90167 21.9243 9.94358L20.4572 8.86063ZM20.4572 8.86063L20.4554 8.85697L18.1825 4.31124C18.1825 4.31114 18.1824 4.31104 18.1824 4.31094C17.5327 3.00492 16.589 2.18359 15.4986 2.18359C14.4091 2.18359 13.4621 3.00393 12.806 4.30936L12.8055 4.3103L10.5322 8.85697L10.5322 8.85696L10.5304 8.86064C10.4202 9.08567 10.1985 9.338 9.91146 9.55081C9.62483 9.76334 9.31939 9.90209 9.07531 9.94374C9.07502 9.94378 9.07474 9.94383 9.07446 9.94388L4.9558 10.6282L4.95555 10.6282C3.55131 10.8622 2.51545 11.5197 2.18801 12.5451C1.86071 13.5701 2.32303 14.7067 3.32795 15.7116L6.53128 18.915C6.7276 19.1113 6.90206 19.4261 7.00638 19.7905C7.11043 20.154 7.12984 20.5151 7.06895 20.7884C7.06883 20.7889 7.06872 20.7895 7.0686 20.79L6.15229 24.752C6.15228 24.752 6.15228 24.7521 6.15227 24.7521C5.78024 26.3598 5.96422 27.7317 6.89689 28.4122C7.82917 29.0925 9.1931 28.8508 10.6146 28.0072L14.4729 25.7232C14.4734 25.7229 14.4739 25.7226 14.4744 25.7223C14.7356 25.5708 15.1079 25.481 15.5051 25.481C15.9035 25.481 16.2713 25.5713 16.5241 25.7211L16.5243 25.7213L20.3864 28.0075L20.3868 28.0077C21.8123 28.8498 23.1768 29.0963 24.1083 28.4172C25.0406 27.7375 25.2197 26.364 24.8483 24.7525L24.8482 24.7521L23.9319 20.79C23.9318 20.7894 23.9316 20.7888 23.9315 20.7883C23.8707 20.5149 23.8901 20.1539 23.9941 19.7905C24.0984 19.4261 24.2729 19.1113 24.4692 18.915L27.6713 15.7128C27.6716 15.7126 27.6718 15.7124 27.6721 15.7121C28.6835 14.7073 29.1468 13.5701 28.817 12.5442C28.4876 11.5192 27.4487 10.8622 26.0449 10.6282L26.0447 10.6282L21.9245 9.94363L20.4572 8.86063Z" fill="#F69C42" stroke="#F69C42" stroke-linecap="round" stroke-linejoin="round"/>
</svg>
