<svg width="59" height="59" viewBox="0 0 59 59" fill="none" xmlns="http://www.w3.org/2000/svg">
<path d="M14.3811 42.0378C16.4707 40.4399 18.8061 39.18 21.3873 38.2581C23.9686 37.3363 26.6728 36.8753 29.4998 36.8753C32.3269 36.8753 35.0311 37.3363 37.6123 38.2581C40.1936 39.18 42.529 40.4399 44.6186 42.0378C46.0526 40.358 47.1691 38.4528 47.9681 36.3222C48.767 34.1916 49.1665 31.9177 49.1665 29.5003C49.1665 24.051 47.2511 19.4109 43.4202 15.58C39.5892 11.7491 34.9491 9.83366 29.4998 9.83366C24.0505 9.83366 19.4104 11.7491 15.5795 15.58C11.7486 19.4109 9.83317 24.051 9.83317 29.5003C9.83317 31.9177 10.2326 34.1916 11.0316 36.3222C11.8306 38.4528 12.9471 40.358 14.3811 42.0378ZM29.4998 31.9587C27.0825 31.9587 25.0441 31.129 23.3847 29.4696C21.7254 27.8102 20.8957 25.7719 20.8957 23.3545C20.8957 20.9371 21.7254 18.8988 23.3847 17.2394C25.0441 15.58 27.0825 14.7503 29.4998 14.7503C31.9172 14.7503 33.9556 15.58 35.6149 17.2394C37.2743 18.8988 38.104 20.9371 38.104 23.3545C38.104 25.7719 37.2743 27.8102 35.6149 29.4696C33.9556 31.129 31.9172 31.9587 29.4998 31.9587ZM29.4998 54.0837C26.0991 54.0837 22.9033 53.4383 19.9123 52.1477C16.9214 50.8571 14.3196 49.1055 12.1071 46.893C9.89463 44.6805 8.14307 42.0788 6.85244 39.0878C5.56182 36.0969 4.9165 32.901 4.9165 29.5003C4.9165 26.0996 5.56182 22.9038 6.85244 19.9128C8.14307 16.9219 9.89463 14.3201 12.1071 12.1076C14.3196 9.89512 16.9214 8.14355 19.9123 6.85293C22.9033 5.5623 26.0991 4.91699 29.4998 4.91699C32.9005 4.91699 36.0964 5.5623 39.0873 6.85293C42.0783 8.14355 44.68 9.89512 46.8925 12.1076C49.105 14.3201 50.8566 16.9219 52.1472 19.9128C53.4379 22.9038 54.0832 26.0996 54.0832 29.5003C54.0832 32.901 53.4379 36.0969 52.1472 39.0878C50.8566 42.0788 49.105 44.6805 46.8925 46.893C44.68 49.1055 42.0783 50.8571 39.0873 52.1477C36.0964 53.4383 32.9005 54.0837 29.4998 54.0837Z" fill="#F69C42"/>
</svg>
