<svg width="70" height="70" viewBox="0 0 70 70" fill="none" xmlns="http://www.w3.org/2000/svg">
<path fill-rule="evenodd" clip-rule="evenodd" d="M44.2851 14.0004C45.6513 12.6335 47.8668 12.6326 49.2341 13.9983L55.2728 20.0302C56.6407 21.3966 56.6416 23.6132 55.2749 24.9807L26.7683 53.5029C26.2809 53.9906 25.6601 54.3235 24.9841 54.4597L12.25 57.0256L14.8205 44.3064C14.9568 43.6318 15.289 43.0124 15.7756 42.5256L44.2851 14.0004Z" fill="black"/>
<path d="M40.2498 57.0256H57.7498M12.25 57.0256L24.9841 54.4597C25.6601 54.3235 26.2809 53.9906 26.7683 53.5029L55.2749 24.9807C56.6416 23.6132 56.6407 21.3966 55.2728 20.0302L49.2341 13.9983C47.8668 12.6326 45.6513 12.6335 44.2851 14.0004L15.7756 42.5256C15.289 43.0124 14.9568 43.6318 14.8205 44.3064L12.25 57.0256Z" stroke="black" stroke-width="5" stroke-linecap="round" stroke-linejoin="round"/>
</svg>
