<svg width="24" height="23" viewBox="0 0 24 23" fill="none" xmlns="http://www.w3.org/2000/svg">
<path d="M12 11.4997C10.9 11.4997 9.95833 11.1243 9.175 10.3736C8.39167 9.62294 8 8.72051 8 7.66634C8 6.61217 8.39167 5.70974 9.175 4.95905C9.95833 4.20836 10.9 3.83301 12 3.83301C13.1 3.83301 14.0417 4.20836 14.825 4.95905C15.6083 5.70974 16 6.61217 16 7.66634C16 8.72051 15.6083 9.62294 14.825 10.3736C14.0417 11.1243 13.1 11.4997 12 11.4997ZM4 19.1663V16.483C4 15.94 4.14583 15.4408 4.4375 14.9856C4.72917 14.5304 5.11667 14.183 5.6 13.9434C6.63333 13.4483 7.68333 13.0769 8.75 12.8294C9.81667 12.5818 10.9 12.458 12 12.458C13.1 12.458 14.1833 12.5818 15.25 12.8294C16.3167 13.0769 17.3667 13.4483 18.4 13.9434C18.8833 14.183 19.2708 14.5304 19.5625 14.9856C19.8542 15.4408 20 15.94 20 16.483V19.1663H4ZM6 17.2497H18V16.483C18 16.3073 17.9542 16.1476 17.8625 16.0038C17.7708 15.8601 17.65 15.7483 17.5 15.6684C16.6 15.2372 15.6917 14.9137 14.775 14.6981C13.8583 14.4825 12.9333 14.3747 12 14.3747C11.0667 14.3747 10.1417 14.4825 9.225 14.6981C8.30833 14.9137 7.4 15.2372 6.5 15.6684C6.35 15.7483 6.22917 15.8601 6.1375 16.0038C6.04583 16.1476 6 16.3073 6 16.483V17.2497ZM12 9.58301C12.55 9.58301 13.0208 9.39533 13.4125 9.01999C13.8042 8.64464 14 8.19342 14 7.66634C14 7.13926 13.8042 6.68804 13.4125 6.3127C13.0208 5.93735 12.55 5.74967 12 5.74967C11.45 5.74967 10.9792 5.93735 10.5875 6.3127C10.1958 6.68804 10 7.13926 10 7.66634C10 8.19342 10.1958 8.64464 10.5875 9.01999C10.9792 9.39533 11.45 9.58301 12 9.58301Z" fill="#F69C42"/>
</svg>
