<svg width="231" height="55" viewBox="0 0 231 55" fill="none" xmlns="http://www.w3.org/2000/svg">
<g filter="url(#filter0_d_251_3545)">
<path d="M0 25C0 11.1929 11.1929 0 25 0H206C219.807 0 231 11.1929 231 25V30C231 43.8071 219.807 55 206 55H25C11.1929 55 0 43.8071 0 30V25Z" fill="#F79C42"/>
<path d="M0.5 25C0.5 11.469 11.469 0.5 25 0.5H206C219.531 0.5 230.5 11.469 230.5 25V30C230.5 43.531 219.531 54.5 206 54.5H25C11.469 54.5 0.5 43.531 0.5 30V25Z" stroke="#E78727"/>
</g>
<defs>
<filter id="filter0_d_251_3545" x="-4" y="0" width="239" height="63" filterUnits="userSpaceOnUse" color-interpolation-filters="sRGB">
<feFlood flood-opacity="0" result="BackgroundImageFix"/>
<feColorMatrix in="SourceAlpha" type="matrix" values="0 0 0 0 0 0 0 0 0 0 0 0 0 0 0 0 0 0 127 0" result="hardAlpha"/>
<feOffset dy="4"/>
<feGaussianBlur stdDeviation="2"/>
<feComposite in2="hardAlpha" operator="out"/>
<feColorMatrix type="matrix" values="0 0 0 0 0 0 0 0 0 0 0 0 0 0 0 0 0 0 0.25 0"/>
<feBlend mode="normal" in2="BackgroundImageFix" result="effect1_dropShadow_251_3545"/>
<feBlend mode="normal" in="SourceGraphic" in2="effect1_dropShadow_251_3545" result="shape"/>
</filter>
</defs>
</svg>
