<svg width="31" height="29" viewBox="0 0 31 29" fill="none" xmlns="http://www.w3.org/2000/svg">
<path d="M21.7733 7.54641C21.7685 7.54136 21.7646 7.53712 21.7616 7.53374L19.5003 3.30277C19.4999 3.30208 19.4995 3.3014 19.4992 3.30071C18.7085 1.81486 17.3522 0.510742 15.4981 0.510742C13.6466 0.510742 12.2872 1.81208 11.4904 3.29509L11.4884 3.29892L9.22479 7.53407C9.22168 7.53761 9.2176 7.54211 9.21245 7.54751C9.1823 7.57913 9.13358 7.62239 9.06889 7.66727C9.00451 7.71192 8.94111 7.74651 8.8889 7.76925C8.85842 7.78252 8.83975 7.78831 8.83362 7.79012L4.7301 8.42791L4.72916 8.42805C3.12694 8.67786 1.37456 9.46426 0.771058 11.2323C0.150232 13.051 1.13367 14.7232 2.3147 15.8281L5.50208 18.8098C5.5049 18.8139 5.50899 18.8202 5.5141 18.829C5.53342 18.8621 5.55598 18.9112 5.57412 18.9704C5.5923 19.0299 5.60019 19.0804 5.60229 19.1132C5.60243 19.1154 5.60254 19.1174 5.60262 19.1192L4.69744 22.7806C4.69743 22.7806 4.69742 22.7807 4.69741 22.7807C4.6974 22.7808 4.69739 22.7808 4.69738 22.7809C4.28081 24.4651 4.30585 26.6537 6.06357 27.8535C7.72639 28.9885 9.7871 28.4032 11.3292 27.5472C11.3294 27.5471 11.3295 27.547 11.3297 27.5469L15.1732 25.4185C15.1782 25.4165 15.204 25.406 15.2541 25.3949C15.3218 25.3799 15.4086 25.3696 15.5046 25.3696C15.6007 25.3696 15.6855 25.38 15.7497 25.3942C15.7901 25.4033 15.8119 25.4114 15.8176 25.4137L19.6717 27.548L19.6733 27.5489C21.2126 28.3995 23.2758 28.9935 24.9401 27.8585C26.7019 26.657 26.7162 24.4614 26.3025 22.7825L26.3021 22.7809L25.3969 19.1192C25.397 19.1174 25.3971 19.1154 25.3972 19.1132C25.3993 19.0804 25.4072 19.0299 25.4254 18.9704C25.4435 18.9112 25.4661 18.8621 25.4854 18.829C25.4905 18.8202 25.4946 18.8139 25.4974 18.8098L28.6798 15.8327C28.6807 15.8319 28.6816 15.8311 28.6824 15.8303C29.8705 14.7253 30.8582 13.051 30.232 11.2284C29.6252 9.46253 27.8708 8.67759 26.2704 8.42805L26.2694 8.42791L22.1576 7.78883C22.1531 7.78756 22.1322 7.78177 22.0964 7.76631C22.0432 7.7434 21.9796 7.70889 21.9156 7.66468C21.8512 7.62021 21.8029 7.57744 21.7733 7.54641ZM5.60278 19.1337C5.60277 19.1337 5.60278 19.1331 5.60286 19.1321L5.60278 19.1337ZM15.8096 25.4092L15.8097 25.4093L15.8096 25.4092ZM25.3967 19.1321C25.3967 19.1331 25.3967 19.1337 25.3967 19.1337L25.3967 19.1321Z" stroke="#F69C42" stroke-width="4" stroke-linecap="round" stroke-linejoin="round"/>
</svg>
